G04 #@! TF.GenerationSoftware,KiCad,Pcbnew,(5.1.4)-1*
G04 #@! TF.CreationDate,2022-04-04T22:54:45-04:00*
G04 #@! TF.ProjectId,CR31,43523331-2e6b-4696-9361-645f70636258,rev?*
G04 #@! TF.SameCoordinates,Original*
G04 #@! TF.FileFunction,Copper,L1,Top*
G04 #@! TF.FilePolarity,Positive*
%FSLAX46Y46*%
G04 Gerber Fmt 4.6, Leading zero omitted, Abs format (unit mm)*
G04 Created by KiCad (PCBNEW (5.1.4)-1) date 2022-04-04 22:54:45*
%MOMM*%
%LPD*%
G04 APERTURE LIST*
%ADD10R,2.350000X3.000000*%
%ADD11O,2.350000X3.000000*%
%ADD12C,2.500000*%
%ADD13C,0.750000*%
G04 APERTURE END LIST*
D10*
X42080000Y-85000000D03*
X42080000Y-90000000D03*
D11*
X46040000Y-90000000D03*
X50000000Y-90000000D03*
X53960000Y-90000000D03*
X57920000Y-90000000D03*
D12*
X50000000Y-39500000D03*
X43828255Y-41000000D03*
X40013907Y-46755322D03*
X40013907Y-53244678D03*
X56171745Y-41505322D03*
X59986093Y-46755322D03*
X59986093Y-53244678D03*
X62000000Y-59000000D03*
X59000000Y-68000000D03*
D11*
X57920000Y-95000000D03*
X53960000Y-95000000D03*
X50000000Y-95000000D03*
X46040000Y-95000000D03*
D10*
X42080000Y-95000000D03*
D13*
X42080000Y-90000000D02*
X42080000Y-85000000D01*
X57920000Y-90000000D02*
X57920000Y-72930000D01*
X59000000Y-71850000D02*
X59000000Y-68000000D01*
X57920000Y-72930000D02*
X59000000Y-71850000D01*
X53960000Y-94675000D02*
X52000000Y-92715000D01*
X53960000Y-95000000D02*
X53960000Y-94675000D01*
X52000000Y-92715000D02*
X52000000Y-45750000D01*
X52000000Y-45750000D02*
X50000000Y-43750000D01*
X50000000Y-43750000D02*
X50000000Y-39500000D01*
X48000000Y-45171745D02*
X43828255Y-41000000D01*
X48000000Y-92675000D02*
X48000000Y-45171745D01*
X50000000Y-95000000D02*
X50000000Y-94675000D01*
X50000000Y-94675000D02*
X48000000Y-92675000D01*
X46040000Y-94675000D02*
X44100000Y-92735000D01*
X46040000Y-95000000D02*
X46040000Y-94675000D01*
X44100000Y-50841415D02*
X40013907Y-46755322D01*
X44100000Y-92735000D02*
X44100000Y-88250000D01*
X44100000Y-88250000D02*
X45450000Y-86900000D01*
X45450000Y-52191415D02*
X44100000Y-50841415D01*
X45450000Y-86900000D02*
X45450000Y-52191415D01*
X42080000Y-94675000D02*
X39400000Y-91995000D01*
X42080000Y-95000000D02*
X42080000Y-94675000D01*
X39400000Y-91995000D02*
X39400000Y-58850000D01*
X40013907Y-58236093D02*
X40013907Y-53244678D01*
X39400000Y-58850000D02*
X40013907Y-58236093D01*
X56171745Y-44778255D02*
X56171745Y-41505322D01*
X55950000Y-45000000D02*
X56171745Y-44778255D01*
X55950000Y-92705000D02*
X55950000Y-45000000D01*
X57920000Y-95000000D02*
X57920000Y-94675000D01*
X57920000Y-94675000D02*
X55950000Y-92705000D01*
M02*
