M48
METRIC,TZ
T1C1.600
T2C1.650
%
G90
G05
T1
X40014Y-46755
X40014Y-53245
X43828Y-41000
X50000Y-39500
X56172Y-41505
X59000Y-68000
X59986Y-46755
X59986Y-53245
X62000Y-59000
T2
X42080Y-85000
X42080Y-95000
X46040Y-95000
X50000Y-95000
X53960Y-95000
X57920Y-95000
X42080Y-90000
X46040Y-90000
X50000Y-90000
X53960Y-90000
X57920Y-90000
T0
M30
