G04 #@! TF.GenerationSoftware,KiCad,Pcbnew,(5.1.4)-1*
G04 #@! TF.CreationDate,2022-04-04T22:54:45-04:00*
G04 #@! TF.ProjectId,CR31,43523331-2e6b-4696-9361-645f70636258,rev?*
G04 #@! TF.SameCoordinates,Original*
G04 #@! TF.FileFunction,Legend,Bot*
G04 #@! TF.FilePolarity,Positive*
%FSLAX46Y46*%
G04 Gerber Fmt 4.6, Leading zero omitted, Abs format (unit mm)*
G04 Created by KiCad (PCBNEW (5.1.4)-1) date 2022-04-04 22:54:45*
%MOMM*%
%LPD*%
G04 APERTURE LIST*
%ADD10C,0.500000*%
%ADD11C,0.400000*%
G04 APERTURE END LIST*
D10*
X54571428Y-49428571D02*
X54761904Y-49619047D01*
X55333333Y-49809523D01*
X55714285Y-49809523D01*
X56285714Y-49619047D01*
X56666666Y-49238095D01*
X56857142Y-48857142D01*
X57047619Y-48095238D01*
X57047619Y-47523809D01*
X56857142Y-46761904D01*
X56666666Y-46380952D01*
X56285714Y-46000000D01*
X55714285Y-45809523D01*
X55333333Y-45809523D01*
X54761904Y-46000000D01*
X54571428Y-46190476D01*
X50571428Y-49809523D02*
X51904761Y-47904761D01*
X52857142Y-49809523D02*
X52857142Y-45809523D01*
X51333333Y-45809523D01*
X50952380Y-46000000D01*
X50761904Y-46190476D01*
X50571428Y-46571428D01*
X50571428Y-47142857D01*
X50761904Y-47523809D01*
X50952380Y-47714285D01*
X51333333Y-47904761D01*
X52857142Y-47904761D01*
X49238095Y-45809523D02*
X46761904Y-45809523D01*
X48095238Y-47333333D01*
X47523809Y-47333333D01*
X47142857Y-47523809D01*
X46952380Y-47714285D01*
X46761904Y-48095238D01*
X46761904Y-49047619D01*
X46952380Y-49428571D01*
X47142857Y-49619047D01*
X47523809Y-49809523D01*
X48666666Y-49809523D01*
X49047619Y-49619047D01*
X49238095Y-49428571D01*
X42952380Y-49809523D02*
X45238095Y-49809523D01*
X44095238Y-49809523D02*
X44095238Y-45809523D01*
X44476190Y-46380952D01*
X44857142Y-46761904D01*
X45238095Y-46952380D01*
D11*
X57185714Y-97307142D02*
X58614285Y-97307142D01*
X58757142Y-98735714D01*
X58614285Y-98592857D01*
X58328571Y-98450000D01*
X57614285Y-98450000D01*
X57328571Y-98592857D01*
X57185714Y-98735714D01*
X57042857Y-99021428D01*
X57042857Y-99735714D01*
X57185714Y-100021428D01*
X57328571Y-100164285D01*
X57614285Y-100307142D01*
X58328571Y-100307142D01*
X58614285Y-100164285D01*
X58757142Y-100021428D01*
X53478571Y-97307142D02*
X54050000Y-97307142D01*
X54335714Y-97450000D01*
X54478571Y-97592857D01*
X54764285Y-98021428D01*
X54907142Y-98592857D01*
X54907142Y-99735714D01*
X54764285Y-100021428D01*
X54621428Y-100164285D01*
X54335714Y-100307142D01*
X53764285Y-100307142D01*
X53478571Y-100164285D01*
X53335714Y-100021428D01*
X53192857Y-99735714D01*
X53192857Y-99021428D01*
X53335714Y-98735714D01*
X53478571Y-98592857D01*
X53764285Y-98450000D01*
X54335714Y-98450000D01*
X54621428Y-98592857D01*
X54764285Y-98735714D01*
X54907142Y-99021428D01*
X51050000Y-97307142D02*
X49050000Y-97307142D01*
X50335714Y-100307142D01*
X46335714Y-98592857D02*
X46621428Y-98450000D01*
X46764285Y-98307142D01*
X46907142Y-98021428D01*
X46907142Y-97878571D01*
X46764285Y-97592857D01*
X46621428Y-97450000D01*
X46335714Y-97307142D01*
X45764285Y-97307142D01*
X45478571Y-97450000D01*
X45335714Y-97592857D01*
X45192857Y-97878571D01*
X45192857Y-98021428D01*
X45335714Y-98307142D01*
X45478571Y-98450000D01*
X45764285Y-98592857D01*
X46335714Y-98592857D01*
X46621428Y-98735714D01*
X46764285Y-98878571D01*
X46907142Y-99164285D01*
X46907142Y-99735714D01*
X46764285Y-100021428D01*
X46621428Y-100164285D01*
X46335714Y-100307142D01*
X45764285Y-100307142D01*
X45478571Y-100164285D01*
X45335714Y-100021428D01*
X45192857Y-99735714D01*
X45192857Y-99164285D01*
X45335714Y-98878571D01*
X45478571Y-98735714D01*
X45764285Y-98592857D01*
X42621428Y-100307142D02*
X42050000Y-100307142D01*
X41764285Y-100164285D01*
X41621428Y-100021428D01*
X41335714Y-99592857D01*
X41192857Y-99021428D01*
X41192857Y-97878571D01*
X41335714Y-97592857D01*
X41478571Y-97450000D01*
X41764285Y-97307142D01*
X42335714Y-97307142D01*
X42621428Y-97450000D01*
X42764285Y-97592857D01*
X42907142Y-97878571D01*
X42907142Y-98592857D01*
X42764285Y-98878571D01*
X42621428Y-99021428D01*
X42335714Y-99164285D01*
X41764285Y-99164285D01*
X41478571Y-99021428D01*
X41335714Y-98878571D01*
X41192857Y-98592857D01*
X57140476Y-87971428D02*
X57045238Y-87685714D01*
X57045238Y-87209523D01*
X57140476Y-87019047D01*
X57235714Y-86923809D01*
X57426190Y-86828571D01*
X57616666Y-86828571D01*
X57807142Y-86923809D01*
X57902380Y-87019047D01*
X57997619Y-87209523D01*
X58092857Y-87590476D01*
X58188095Y-87780952D01*
X58283333Y-87876190D01*
X58473809Y-87971428D01*
X58664285Y-87971428D01*
X58854761Y-87876190D01*
X58950000Y-87780952D01*
X59045238Y-87590476D01*
X59045238Y-87114285D01*
X58950000Y-86828571D01*
X58950000Y-84923809D02*
X59045238Y-85114285D01*
X59045238Y-85400000D01*
X58950000Y-85685714D01*
X58759523Y-85876190D01*
X58569047Y-85971428D01*
X58188095Y-86066666D01*
X57902380Y-86066666D01*
X57521428Y-85971428D01*
X57330952Y-85876190D01*
X57140476Y-85685714D01*
X57045238Y-85400000D01*
X57045238Y-85209523D01*
X57140476Y-84923809D01*
X57235714Y-84828571D01*
X57902380Y-84828571D01*
X57902380Y-85209523D01*
X53240476Y-88023809D02*
X53145238Y-87738095D01*
X53145238Y-87261904D01*
X53240476Y-87071428D01*
X53335714Y-86976190D01*
X53526190Y-86880952D01*
X53716666Y-86880952D01*
X53907142Y-86976190D01*
X54002380Y-87071428D01*
X54097619Y-87261904D01*
X54192857Y-87642857D01*
X54288095Y-87833333D01*
X54383333Y-87928571D01*
X54573809Y-88023809D01*
X54764285Y-88023809D01*
X54954761Y-87928571D01*
X55050000Y-87833333D01*
X55145238Y-87642857D01*
X55145238Y-87166666D01*
X55050000Y-86880952D01*
X55050000Y-84976190D02*
X55145238Y-85166666D01*
X55145238Y-85452380D01*
X55050000Y-85738095D01*
X54859523Y-85928571D01*
X54669047Y-86023809D01*
X54288095Y-86119047D01*
X54002380Y-86119047D01*
X53621428Y-86023809D01*
X53430952Y-85928571D01*
X53240476Y-85738095D01*
X53145238Y-85452380D01*
X53145238Y-85261904D01*
X53240476Y-84976190D01*
X53335714Y-84880952D01*
X54002380Y-84880952D01*
X54002380Y-85261904D01*
X54954761Y-84119047D02*
X55050000Y-84023809D01*
X55145238Y-83833333D01*
X55145238Y-83357142D01*
X55050000Y-83166666D01*
X54954761Y-83071428D01*
X54764285Y-82976190D01*
X54573809Y-82976190D01*
X54288095Y-83071428D01*
X53145238Y-84214285D01*
X53145238Y-82976190D01*
X51000000Y-85057142D02*
X49142857Y-85057142D01*
X50142857Y-86200000D01*
X49714285Y-86200000D01*
X49428571Y-86342857D01*
X49285714Y-86485714D01*
X49142857Y-86771428D01*
X49142857Y-87485714D01*
X49285714Y-87771428D01*
X49428571Y-87914285D01*
X49714285Y-88057142D01*
X50571428Y-88057142D01*
X50857142Y-87914285D01*
X51000000Y-87771428D01*
X45478571Y-86007142D02*
X45478571Y-88007142D01*
X46192857Y-84864285D02*
X46907142Y-87007142D01*
X45050000Y-87007142D01*
X38142857Y-88357142D02*
X39857142Y-88357142D01*
X39000000Y-88357142D02*
X39000000Y-85357142D01*
X39285714Y-85785714D01*
X39571428Y-86071428D01*
X39857142Y-86214285D01*
M02*
