G04 #@! TF.GenerationSoftware,KiCad,Pcbnew,(5.1.4)-1*
G04 #@! TF.CreationDate,2022-04-04T21:54:13-04:00*
G04 #@! TF.ProjectId,CR30 adapter,43523330-2061-4646-9170-7465722e6b69,rev?*
G04 #@! TF.SameCoordinates,Original*
G04 #@! TF.FileFunction,Soldermask,Bot*
G04 #@! TF.FilePolarity,Negative*
%FSLAX46Y46*%
G04 Gerber Fmt 4.6, Leading zero omitted, Abs format (unit mm)*
G04 Created by KiCad (PCBNEW (5.1.4)-1) date 2022-04-04 21:54:13*
%MOMM*%
%LPD*%
G04 APERTURE LIST*
%ADD10C,0.100000*%
G04 APERTURE END LIST*
D10*
G36*
X103350337Y-110276739D02*
G01*
X103581439Y-110346843D01*
X103794424Y-110460686D01*
X103981107Y-110613893D01*
X104134314Y-110800575D01*
X104248157Y-111013560D01*
X104318261Y-111244662D01*
X104336000Y-111424771D01*
X104336000Y-112195228D01*
X104318261Y-112375337D01*
X104248157Y-112606440D01*
X104134314Y-112819425D01*
X103981107Y-113006107D01*
X103794425Y-113159314D01*
X103581440Y-113273157D01*
X103350338Y-113343261D01*
X103110000Y-113366932D01*
X102869663Y-113343261D01*
X102638561Y-113273157D01*
X102425576Y-113159314D01*
X102238894Y-113006107D01*
X102085687Y-112819425D01*
X101971843Y-112606440D01*
X101901739Y-112375338D01*
X101884000Y-112195229D01*
X101884000Y-111424772D01*
X101901739Y-111244663D01*
X101971843Y-111013561D01*
X102085686Y-110800576D01*
X102238893Y-110613893D01*
X102425575Y-110460686D01*
X102638560Y-110346843D01*
X102869662Y-110276739D01*
X103110000Y-110253068D01*
X103350337Y-110276739D01*
X103350337Y-110276739D01*
G37*
G36*
X99390337Y-110276739D02*
G01*
X99621439Y-110346843D01*
X99834424Y-110460686D01*
X100021107Y-110613893D01*
X100174314Y-110800575D01*
X100288157Y-111013560D01*
X100358261Y-111244662D01*
X100376000Y-111424771D01*
X100376000Y-112195228D01*
X100358261Y-112375337D01*
X100288157Y-112606440D01*
X100174314Y-112819425D01*
X100021107Y-113006107D01*
X99834425Y-113159314D01*
X99621440Y-113273157D01*
X99390338Y-113343261D01*
X99150000Y-113366932D01*
X98909663Y-113343261D01*
X98678561Y-113273157D01*
X98465576Y-113159314D01*
X98278894Y-113006107D01*
X98125687Y-112819425D01*
X98011843Y-112606440D01*
X97941739Y-112375338D01*
X97924000Y-112195229D01*
X97924000Y-111424772D01*
X97941739Y-111244663D01*
X98011843Y-111013561D01*
X98125686Y-110800576D01*
X98278893Y-110613893D01*
X98465575Y-110460686D01*
X98678560Y-110346843D01*
X98909662Y-110276739D01*
X99150000Y-110253068D01*
X99390337Y-110276739D01*
X99390337Y-110276739D01*
G37*
G36*
X95430337Y-110276739D02*
G01*
X95661439Y-110346843D01*
X95874424Y-110460686D01*
X96061107Y-110613893D01*
X96214314Y-110800575D01*
X96328157Y-111013560D01*
X96398261Y-111244662D01*
X96416000Y-111424771D01*
X96416000Y-112195228D01*
X96398261Y-112375337D01*
X96328157Y-112606440D01*
X96214314Y-112819425D01*
X96061107Y-113006107D01*
X95874425Y-113159314D01*
X95661440Y-113273157D01*
X95430338Y-113343261D01*
X95190000Y-113366932D01*
X94949663Y-113343261D01*
X94718561Y-113273157D01*
X94505576Y-113159314D01*
X94318894Y-113006107D01*
X94165687Y-112819425D01*
X94051843Y-112606440D01*
X93981739Y-112375338D01*
X93964000Y-112195229D01*
X93964000Y-111424772D01*
X93981739Y-111244663D01*
X94051843Y-111013561D01*
X94165686Y-110800576D01*
X94318893Y-110613893D01*
X94505575Y-110460686D01*
X94718560Y-110346843D01*
X94949662Y-110276739D01*
X95190000Y-110253068D01*
X95430337Y-110276739D01*
X95430337Y-110276739D01*
G37*
G36*
X107310337Y-110276739D02*
G01*
X107541439Y-110346843D01*
X107754424Y-110460686D01*
X107941107Y-110613893D01*
X108094314Y-110800575D01*
X108208157Y-111013560D01*
X108278261Y-111244662D01*
X108296000Y-111424771D01*
X108296000Y-112195228D01*
X108278261Y-112375337D01*
X108208157Y-112606440D01*
X108094314Y-112819425D01*
X107941107Y-113006107D01*
X107754425Y-113159314D01*
X107541440Y-113273157D01*
X107310338Y-113343261D01*
X107070000Y-113366932D01*
X106829663Y-113343261D01*
X106598561Y-113273157D01*
X106385576Y-113159314D01*
X106198894Y-113006107D01*
X106045687Y-112819425D01*
X105931843Y-112606440D01*
X105861739Y-112375338D01*
X105844000Y-112195229D01*
X105844000Y-111424772D01*
X105861739Y-111244663D01*
X105931843Y-111013561D01*
X106045686Y-110800576D01*
X106198893Y-110613893D01*
X106385575Y-110460686D01*
X106598560Y-110346843D01*
X106829662Y-110276739D01*
X107070000Y-110253068D01*
X107310337Y-110276739D01*
X107310337Y-110276739D01*
G37*
G36*
X92456000Y-113361000D02*
G01*
X90004000Y-113361000D01*
X90004000Y-110259000D01*
X92456000Y-110259000D01*
X92456000Y-113361000D01*
X92456000Y-113361000D01*
G37*
G36*
X109260337Y-106276739D02*
G01*
X109491439Y-106346843D01*
X109704424Y-106460686D01*
X109891107Y-106613893D01*
X110044314Y-106800575D01*
X110158157Y-107013560D01*
X110228261Y-107244662D01*
X110246000Y-107424771D01*
X110246000Y-108195228D01*
X110228261Y-108375337D01*
X110158157Y-108606440D01*
X110044314Y-108819425D01*
X109891107Y-109006107D01*
X109704425Y-109159314D01*
X109491440Y-109273157D01*
X109260338Y-109343261D01*
X109020000Y-109366932D01*
X108779663Y-109343261D01*
X108548561Y-109273157D01*
X108335576Y-109159314D01*
X108148894Y-109006107D01*
X107995687Y-108819425D01*
X107881843Y-108606440D01*
X107811739Y-108375338D01*
X107794000Y-108195229D01*
X107794000Y-107424772D01*
X107811739Y-107244663D01*
X107881843Y-107013561D01*
X107995686Y-106800576D01*
X108148893Y-106613893D01*
X108335575Y-106460686D01*
X108548560Y-106346843D01*
X108779662Y-106276739D01*
X109020000Y-106253068D01*
X109260337Y-106276739D01*
X109260337Y-106276739D01*
G37*
G36*
X105300337Y-106276739D02*
G01*
X105531439Y-106346843D01*
X105744424Y-106460686D01*
X105931107Y-106613893D01*
X106084314Y-106800575D01*
X106198157Y-107013560D01*
X106268261Y-107244662D01*
X106286000Y-107424771D01*
X106286000Y-108195228D01*
X106268261Y-108375337D01*
X106198157Y-108606440D01*
X106084314Y-108819425D01*
X105931107Y-109006107D01*
X105744425Y-109159314D01*
X105531440Y-109273157D01*
X105300338Y-109343261D01*
X105060000Y-109366932D01*
X104819663Y-109343261D01*
X104588561Y-109273157D01*
X104375576Y-109159314D01*
X104188894Y-109006107D01*
X104035687Y-108819425D01*
X103921843Y-108606440D01*
X103851739Y-108375338D01*
X103834000Y-108195229D01*
X103834000Y-107424772D01*
X103851739Y-107244663D01*
X103921843Y-107013561D01*
X104035686Y-106800576D01*
X104188893Y-106613893D01*
X104375575Y-106460686D01*
X104588560Y-106346843D01*
X104819662Y-106276739D01*
X105060000Y-106253068D01*
X105300337Y-106276739D01*
X105300337Y-106276739D01*
G37*
G36*
X101340337Y-106276739D02*
G01*
X101571439Y-106346843D01*
X101784424Y-106460686D01*
X101971107Y-106613893D01*
X102124314Y-106800575D01*
X102238157Y-107013560D01*
X102308261Y-107244662D01*
X102326000Y-107424771D01*
X102326000Y-108195228D01*
X102308261Y-108375337D01*
X102238157Y-108606440D01*
X102124314Y-108819425D01*
X101971107Y-109006107D01*
X101784425Y-109159314D01*
X101571440Y-109273157D01*
X101340338Y-109343261D01*
X101100000Y-109366932D01*
X100859663Y-109343261D01*
X100628561Y-109273157D01*
X100415576Y-109159314D01*
X100228894Y-109006107D01*
X100075687Y-108819425D01*
X99961843Y-108606440D01*
X99891739Y-108375338D01*
X99874000Y-108195229D01*
X99874000Y-107424772D01*
X99891739Y-107244663D01*
X99961843Y-107013561D01*
X100075686Y-106800576D01*
X100228893Y-106613893D01*
X100415575Y-106460686D01*
X100628560Y-106346843D01*
X100859662Y-106276739D01*
X101100000Y-106253068D01*
X101340337Y-106276739D01*
X101340337Y-106276739D01*
G37*
G36*
X97380337Y-106276739D02*
G01*
X97611439Y-106346843D01*
X97824424Y-106460686D01*
X98011107Y-106613893D01*
X98164314Y-106800575D01*
X98278157Y-107013560D01*
X98348261Y-107244662D01*
X98366000Y-107424771D01*
X98366000Y-108195228D01*
X98348261Y-108375337D01*
X98278157Y-108606440D01*
X98164314Y-108819425D01*
X98011107Y-109006107D01*
X97824425Y-109159314D01*
X97611440Y-109273157D01*
X97380338Y-109343261D01*
X97140000Y-109366932D01*
X96899663Y-109343261D01*
X96668561Y-109273157D01*
X96455576Y-109159314D01*
X96268894Y-109006107D01*
X96115687Y-108819425D01*
X96001843Y-108606440D01*
X95931739Y-108375338D01*
X95914000Y-108195229D01*
X95914000Y-107424772D01*
X95931739Y-107244663D01*
X96001843Y-107013561D01*
X96115686Y-106800576D01*
X96268893Y-106613893D01*
X96455575Y-106460686D01*
X96668560Y-106346843D01*
X96899662Y-106276739D01*
X97140000Y-106253068D01*
X97380337Y-106276739D01*
X97380337Y-106276739D01*
G37*
G36*
X93420337Y-106276739D02*
G01*
X93651439Y-106346843D01*
X93864424Y-106460686D01*
X94051107Y-106613893D01*
X94204314Y-106800575D01*
X94318157Y-107013560D01*
X94388261Y-107244662D01*
X94406000Y-107424771D01*
X94406000Y-108195228D01*
X94388261Y-108375337D01*
X94318157Y-108606440D01*
X94204314Y-108819425D01*
X94051107Y-109006107D01*
X93864425Y-109159314D01*
X93651440Y-109273157D01*
X93420338Y-109343261D01*
X93180000Y-109366932D01*
X92939663Y-109343261D01*
X92708561Y-109273157D01*
X92495576Y-109159314D01*
X92308894Y-109006107D01*
X92155687Y-108819425D01*
X92041843Y-108606440D01*
X91971739Y-108375338D01*
X91954000Y-108195229D01*
X91954000Y-107424772D01*
X91971739Y-107244663D01*
X92041843Y-107013561D01*
X92155686Y-106800576D01*
X92308893Y-106613893D01*
X92495575Y-106460686D01*
X92708560Y-106346843D01*
X92939662Y-106276739D01*
X93180000Y-106253068D01*
X93420337Y-106276739D01*
X93420337Y-106276739D01*
G37*
G36*
X90446000Y-109361000D02*
G01*
X87994000Y-109361000D01*
X87994000Y-106259000D01*
X90446000Y-106259000D01*
X90446000Y-109361000D01*
X90446000Y-109361000D01*
G37*
G36*
X90446000Y-104871000D02*
G01*
X87994000Y-104871000D01*
X87994000Y-101769000D01*
X90446000Y-101769000D01*
X90446000Y-104871000D01*
X90446000Y-104871000D01*
G37*
G36*
X108601871Y-80738211D02*
G01*
X108929632Y-80873974D01*
X109224610Y-81071072D01*
X109475468Y-81321930D01*
X109672566Y-81616908D01*
X109808329Y-81944669D01*
X109877540Y-82292616D01*
X109877540Y-82647384D01*
X109808329Y-82995331D01*
X109672566Y-83323092D01*
X109475468Y-83618070D01*
X109224610Y-83868928D01*
X108929632Y-84066026D01*
X108601871Y-84201789D01*
X108253924Y-84271000D01*
X107899156Y-84271000D01*
X107551209Y-84201789D01*
X107223448Y-84066026D01*
X106928470Y-83868928D01*
X106677612Y-83618070D01*
X106480514Y-83323092D01*
X106344751Y-82995331D01*
X106275540Y-82647384D01*
X106275540Y-82292616D01*
X106344751Y-81944669D01*
X106480514Y-81616908D01*
X106677612Y-81321930D01*
X106928470Y-81071072D01*
X107223448Y-80873974D01*
X107551209Y-80738211D01*
X107899156Y-80669000D01*
X108253924Y-80669000D01*
X108601871Y-80738211D01*
X108601871Y-80738211D01*
G37*
G36*
X81875331Y-67863878D02*
G01*
X82203092Y-67999641D01*
X82498070Y-68196739D01*
X82748928Y-68447597D01*
X82946026Y-68742575D01*
X83081789Y-69070336D01*
X83151000Y-69418283D01*
X83151000Y-69773051D01*
X83081789Y-70120998D01*
X82946026Y-70448759D01*
X82748928Y-70743737D01*
X82498070Y-70994595D01*
X82203092Y-71191693D01*
X81875331Y-71327456D01*
X81527384Y-71396667D01*
X81172616Y-71396667D01*
X80824669Y-71327456D01*
X80496908Y-71191693D01*
X80201930Y-70994595D01*
X79951072Y-70743737D01*
X79753974Y-70448759D01*
X79618211Y-70120998D01*
X79549000Y-69773051D01*
X79549000Y-69418283D01*
X79618211Y-69070336D01*
X79753974Y-68742575D01*
X79951072Y-68447597D01*
X80201930Y-68196739D01*
X80496908Y-67999641D01*
X80824669Y-67863878D01*
X81172616Y-67794667D01*
X81527384Y-67794667D01*
X81875331Y-67863878D01*
X81875331Y-67863878D01*
G37*
G36*
X117328411Y-67863878D02*
G01*
X117656172Y-67999641D01*
X117951150Y-68196739D01*
X118202008Y-68447597D01*
X118399106Y-68742575D01*
X118534869Y-69070336D01*
X118604080Y-69418283D01*
X118604080Y-69773051D01*
X118534869Y-70120998D01*
X118399106Y-70448759D01*
X118202008Y-70743737D01*
X117951150Y-70994595D01*
X117656172Y-71191693D01*
X117328411Y-71327456D01*
X116980464Y-71396667D01*
X116625696Y-71396667D01*
X116277749Y-71327456D01*
X115949988Y-71191693D01*
X115655010Y-70994595D01*
X115404152Y-70743737D01*
X115207054Y-70448759D01*
X115071291Y-70120998D01*
X115002080Y-69773051D01*
X115002080Y-69418283D01*
X115071291Y-69070336D01*
X115207054Y-68742575D01*
X115404152Y-68447597D01*
X115655010Y-68196739D01*
X115949988Y-67999641D01*
X116277749Y-67863878D01*
X116625696Y-67794667D01*
X116980464Y-67794667D01*
X117328411Y-67863878D01*
X117328411Y-67863878D01*
G37*
G36*
X116988536Y-60079468D02*
G01*
X117316297Y-60215231D01*
X117611275Y-60412329D01*
X117862133Y-60663187D01*
X118059231Y-60958165D01*
X118194994Y-61285926D01*
X118264205Y-61633873D01*
X118264205Y-61988641D01*
X118194994Y-62336588D01*
X118059231Y-62664349D01*
X117862133Y-62959327D01*
X117611275Y-63210185D01*
X117316297Y-63407283D01*
X116988536Y-63543046D01*
X116640589Y-63612257D01*
X116285821Y-63612257D01*
X115937874Y-63543046D01*
X115610113Y-63407283D01*
X115315135Y-63210185D01*
X115064277Y-62959327D01*
X114867179Y-62664349D01*
X114731416Y-62336588D01*
X114662205Y-61988641D01*
X114662205Y-61633873D01*
X114731416Y-61285926D01*
X114867179Y-60958165D01*
X115064277Y-60663187D01*
X115315135Y-60412329D01*
X115610113Y-60215231D01*
X115937874Y-60079468D01*
X116285821Y-60010257D01*
X116640589Y-60010257D01*
X116988536Y-60079468D01*
X116988536Y-60079468D01*
G37*
G36*
X82215206Y-60079468D02*
G01*
X82542967Y-60215231D01*
X82837945Y-60412329D01*
X83088803Y-60663187D01*
X83285901Y-60958165D01*
X83421664Y-61285926D01*
X83490875Y-61633873D01*
X83490875Y-61988641D01*
X83421664Y-62336588D01*
X83285901Y-62664349D01*
X83088803Y-62959327D01*
X82837945Y-63210185D01*
X82542967Y-63407283D01*
X82215206Y-63543046D01*
X81867259Y-63612257D01*
X81512491Y-63612257D01*
X81164544Y-63543046D01*
X80836783Y-63407283D01*
X80541805Y-63210185D01*
X80290947Y-62959327D01*
X80093849Y-62664349D01*
X79958086Y-62336588D01*
X79888875Y-61988641D01*
X79888875Y-61633873D01*
X79958086Y-61285926D01*
X80093849Y-60958165D01*
X80290947Y-60663187D01*
X80541805Y-60412329D01*
X80836783Y-60215231D01*
X81164544Y-60079468D01*
X81512491Y-60010257D01*
X81867259Y-60010257D01*
X82215206Y-60079468D01*
X82215206Y-60079468D01*
G37*
G36*
X113390671Y-53168034D02*
G01*
X113718432Y-53303797D01*
X114013410Y-53500895D01*
X114264268Y-53751753D01*
X114461366Y-54046731D01*
X114597129Y-54374492D01*
X114666340Y-54722439D01*
X114666340Y-55077207D01*
X114597129Y-55425154D01*
X114461366Y-55752915D01*
X114264268Y-56047893D01*
X114013410Y-56298751D01*
X113718432Y-56495849D01*
X113390671Y-56631612D01*
X113042724Y-56700823D01*
X112687956Y-56700823D01*
X112340009Y-56631612D01*
X112012248Y-56495849D01*
X111717270Y-56298751D01*
X111466412Y-56047893D01*
X111269314Y-55752915D01*
X111133551Y-55425154D01*
X111064340Y-55077207D01*
X111064340Y-54722439D01*
X111133551Y-54374492D01*
X111269314Y-54046731D01*
X111466412Y-53751753D01*
X111717270Y-53500895D01*
X112012248Y-53303797D01*
X112340009Y-53168034D01*
X112687956Y-53098823D01*
X113042724Y-53098823D01*
X113390671Y-53168034D01*
X113390671Y-53168034D01*
G37*
G36*
X85813071Y-53168034D02*
G01*
X86140832Y-53303797D01*
X86435810Y-53500895D01*
X86686668Y-53751753D01*
X86883766Y-54046731D01*
X87019529Y-54374492D01*
X87088740Y-54722439D01*
X87088740Y-55077207D01*
X87019529Y-55425154D01*
X86883766Y-55752915D01*
X86686668Y-56047893D01*
X86435810Y-56298751D01*
X86140832Y-56495849D01*
X85813071Y-56631612D01*
X85465124Y-56700823D01*
X85110356Y-56700823D01*
X84762409Y-56631612D01*
X84434648Y-56495849D01*
X84139670Y-56298751D01*
X83888812Y-56047893D01*
X83691714Y-55752915D01*
X83555951Y-55425154D01*
X83486740Y-55077207D01*
X83486740Y-54722439D01*
X83555951Y-54374492D01*
X83691714Y-54046731D01*
X83888812Y-53751753D01*
X84139670Y-53500895D01*
X84434648Y-53303797D01*
X84762409Y-53168034D01*
X85110356Y-53098823D01*
X85465124Y-53098823D01*
X85813071Y-53168034D01*
X85813071Y-53168034D01*
G37*
G36*
X107209000Y-48424671D02*
G01*
X107536761Y-48560434D01*
X107831739Y-48757532D01*
X108082597Y-49008390D01*
X108279695Y-49303368D01*
X108415458Y-49631129D01*
X108484669Y-49979076D01*
X108484669Y-50333844D01*
X108415458Y-50681791D01*
X108279695Y-51009552D01*
X108082597Y-51304530D01*
X107831739Y-51555388D01*
X107536761Y-51752486D01*
X107209000Y-51888249D01*
X106861053Y-51957460D01*
X106506285Y-51957460D01*
X106158338Y-51888249D01*
X105830577Y-51752486D01*
X105535599Y-51555388D01*
X105284741Y-51304530D01*
X105087643Y-51009552D01*
X104951880Y-50681791D01*
X104882669Y-50333844D01*
X104882669Y-49979076D01*
X104951880Y-49631129D01*
X105087643Y-49303368D01*
X105284741Y-49008390D01*
X105535599Y-48757532D01*
X105830577Y-48560434D01*
X106158338Y-48424671D01*
X106506285Y-48355460D01*
X106861053Y-48355460D01*
X107209000Y-48424671D01*
X107209000Y-48424671D01*
G37*
G36*
X91994742Y-48424671D02*
G01*
X92322503Y-48560434D01*
X92617481Y-48757532D01*
X92868339Y-49008390D01*
X93065437Y-49303368D01*
X93201200Y-49631129D01*
X93270411Y-49979076D01*
X93270411Y-50333844D01*
X93201200Y-50681791D01*
X93065437Y-51009552D01*
X92868339Y-51304530D01*
X92617481Y-51555388D01*
X92322503Y-51752486D01*
X91994742Y-51888249D01*
X91646795Y-51957460D01*
X91292027Y-51957460D01*
X90944080Y-51888249D01*
X90616319Y-51752486D01*
X90321341Y-51555388D01*
X90070483Y-51304530D01*
X89873385Y-51009552D01*
X89737622Y-50681791D01*
X89668411Y-50333844D01*
X89668411Y-49979076D01*
X89737622Y-49631129D01*
X89873385Y-49303368D01*
X90070483Y-49008390D01*
X90321341Y-48757532D01*
X90616319Y-48560434D01*
X90944080Y-48424671D01*
X91292027Y-48355460D01*
X91646795Y-48355460D01*
X91994742Y-48424671D01*
X91994742Y-48424671D01*
G37*
G36*
X99601871Y-46738211D02*
G01*
X99929632Y-46873974D01*
X100224610Y-47071072D01*
X100475468Y-47321930D01*
X100672566Y-47616908D01*
X100808329Y-47944669D01*
X100877540Y-48292616D01*
X100877540Y-48647384D01*
X100808329Y-48995331D01*
X100672566Y-49323092D01*
X100475468Y-49618070D01*
X100224610Y-49868928D01*
X99929632Y-50066026D01*
X99601871Y-50201789D01*
X99253924Y-50271000D01*
X98899156Y-50271000D01*
X98551209Y-50201789D01*
X98223448Y-50066026D01*
X97928470Y-49868928D01*
X97677612Y-49618070D01*
X97480514Y-49323092D01*
X97344751Y-48995331D01*
X97275540Y-48647384D01*
X97275540Y-48292616D01*
X97344751Y-47944669D01*
X97480514Y-47616908D01*
X97677612Y-47321930D01*
X97928470Y-47071072D01*
X98223448Y-46873974D01*
X98551209Y-46738211D01*
X98899156Y-46669000D01*
X99253924Y-46669000D01*
X99601871Y-46738211D01*
X99601871Y-46738211D01*
G37*
M02*
