G04 #@! TF.GenerationSoftware,KiCad,Pcbnew,(5.1.4)-1*
G04 #@! TF.CreationDate,2022-04-04T21:54:13-04:00*
G04 #@! TF.ProjectId,CR30 adapter,43523330-2061-4646-9170-7465722e6b69,rev?*
G04 #@! TF.SameCoordinates,Original*
G04 #@! TF.FileFunction,Copper,L1,Top*
G04 #@! TF.FilePolarity,Positive*
%FSLAX46Y46*%
G04 Gerber Fmt 4.6, Leading zero omitted, Abs format (unit mm)*
G04 Created by KiCad (PCBNEW (5.1.4)-1) date 2022-04-04 21:54:13*
%MOMM*%
%LPD*%
G04 APERTURE LIST*
%ADD10C,3.500000*%
%ADD11R,2.350000X3.000000*%
%ADD12O,2.350000X3.000000*%
%ADD13C,0.750000*%
G04 APERTURE END LIST*
D10*
X81350000Y-69595667D03*
X81689875Y-61811257D03*
X85287740Y-54899823D03*
X91469411Y-50156460D03*
X99076540Y-48470000D03*
X106683669Y-50156460D03*
X112865340Y-54899823D03*
X116463205Y-61811257D03*
X116803080Y-69595667D03*
X108076540Y-82470000D03*
D11*
X89220000Y-103320000D03*
X91230000Y-111810000D03*
D12*
X95190000Y-111810000D03*
X99150000Y-111810000D03*
X103110000Y-111810000D03*
X107070000Y-111810000D03*
D11*
X89220000Y-107810000D03*
D12*
X93180000Y-107810000D03*
X97140000Y-107810000D03*
X101100000Y-107810000D03*
X105060000Y-107810000D03*
X109020000Y-107810000D03*
D13*
X109020000Y-107810000D02*
X109020000Y-88900000D01*
X109020000Y-88900000D02*
X90900000Y-70780000D01*
X90900000Y-56646540D02*
X99076540Y-48470000D01*
X90900000Y-70780000D02*
X90900000Y-56646540D01*
X105060000Y-107810000D02*
X105060000Y-87270000D01*
X105060000Y-87270000D02*
X88840000Y-71050000D01*
X88840000Y-52785871D02*
X91469411Y-50156460D01*
X88840000Y-71050000D02*
X88840000Y-52785871D01*
X101100000Y-107810000D02*
X101100000Y-86650000D01*
X101100000Y-86650000D02*
X87100000Y-72650000D01*
X87100000Y-56712083D02*
X85287740Y-54899823D01*
X87100000Y-72650000D02*
X87100000Y-56712083D01*
X97140000Y-107810000D02*
X97140000Y-86450000D01*
X97140000Y-86450000D02*
X85140000Y-74450000D01*
X85140000Y-65261382D02*
X81689875Y-61811257D01*
X85140000Y-74450000D02*
X85140000Y-65261382D01*
X93180000Y-107810000D02*
X93180000Y-85900000D01*
X81350000Y-74070000D02*
X81350000Y-69595667D01*
X93180000Y-85900000D02*
X81350000Y-74070000D01*
X89220000Y-107810000D02*
X89220000Y-103320000D01*
M02*
