M48
METRIC,TZ
T1C1.650
T2C2.000
%
G90
G05
T1
X89220Y-103320
X91230Y-111810
X95190Y-111810
X99150Y-111810
X103110Y-111810
X107070Y-111810
X89220Y-107810
X93180Y-107810
X97140Y-107810
X101100Y-107810
X105060Y-107810
X109020Y-107810
T2
X81350Y-69596
X81690Y-61811
X85288Y-54900
X91469Y-50156
X99077Y-48470
X106684Y-50156
X108077Y-82470
X112865Y-54900
X116463Y-61811
X116803Y-69596
T0
M30
