G04 #@! TF.GenerationSoftware,KiCad,Pcbnew,(5.1.4)-1*
G04 #@! TF.CreationDate,2022-04-04T21:48:15-04:00*
G04 #@! TF.ProjectId,CR23 adapter,43523233-2061-4646-9170-7465722e6b69,rev?*
G04 #@! TF.SameCoordinates,Original*
G04 #@! TF.FileFunction,Copper,L1,Top*
G04 #@! TF.FilePolarity,Positive*
%FSLAX46Y46*%
G04 Gerber Fmt 4.6, Leading zero omitted, Abs format (unit mm)*
G04 Created by KiCad (PCBNEW (5.1.4)-1) date 2022-04-04 21:48:15*
%MOMM*%
%LPD*%
G04 APERTURE LIST*
%ADD10O,1.500000X3.000000*%
%ADD11C,2.600000*%
%ADD12C,0.800000*%
%ADD13C,0.400000*%
%ADD14C,0.250000*%
G04 APERTURE END LIST*
D10*
X70165800Y-75190200D03*
X67625800Y-75190200D03*
X65085800Y-75190200D03*
X62545800Y-75190200D03*
X60005800Y-75190200D03*
D11*
X65054800Y-25265800D03*
X60284800Y-26355800D03*
X56454800Y-29405800D03*
X54334800Y-33815800D03*
X54334800Y-38715800D03*
X69824800Y-26355800D03*
X73654800Y-29405800D03*
X75774800Y-33815800D03*
X75774800Y-38715800D03*
X75554800Y-55765800D03*
D10*
X71435800Y-71583400D03*
X68895800Y-71583400D03*
X66355800Y-71583400D03*
X63815800Y-71583400D03*
X61275800Y-71583400D03*
X58735800Y-71583400D03*
X58723200Y-67049600D03*
D12*
X72400000Y-48200000D03*
X65800000Y-44400000D03*
X63800000Y-45600000D03*
D13*
X72800000Y-36790600D02*
X75774800Y-33815800D01*
X72800000Y-47400000D02*
X72800000Y-36790600D01*
X72800000Y-47400000D02*
X72800000Y-47800000D01*
X72800000Y-47800000D02*
X72400000Y-48200000D01*
X71435800Y-50035800D02*
X66600000Y-45200000D01*
X71435800Y-71583400D02*
X71435800Y-50035800D01*
X66600000Y-45200000D02*
X65800000Y-44400000D01*
X68895800Y-50695800D02*
X64600000Y-46400000D01*
X68895800Y-71583400D02*
X68895800Y-50695800D01*
X64600000Y-46400000D02*
X63800000Y-45600000D01*
X66355800Y-50355800D02*
X58400000Y-42400000D01*
X58400000Y-31351000D02*
X56454800Y-29405800D01*
X58400000Y-42400000D02*
X58400000Y-31351000D01*
X66355800Y-69833400D02*
X66355800Y-50355800D01*
D14*
X66355800Y-71583400D02*
X66355800Y-69833400D01*
D13*
X57000000Y-36481000D02*
X54334800Y-33815800D01*
X57000000Y-44200000D02*
X57000000Y-36481000D01*
X63815800Y-51015800D02*
X57000000Y-44200000D01*
X63815800Y-71583400D02*
X63815800Y-51015800D01*
X54334800Y-45134800D02*
X54334800Y-38715800D01*
X61275800Y-52075800D02*
X54334800Y-45134800D01*
X61275800Y-71583400D02*
X61275800Y-52075800D01*
D14*
X58735800Y-67062200D02*
X58723200Y-67049600D01*
D13*
X58735800Y-71583400D02*
X58735800Y-67062200D01*
M02*
