M48
METRIC,TZ
T1C0.400
T2C1.000
T3C1.600
%
G90
G05
T1
X63800Y-45600
X65800Y-44400
X72400Y-48200
T2
X58723Y-67050
X60006Y-75190
X62546Y-75190
X65086Y-75190
X67626Y-75190
X70166Y-75190
X58736Y-71583
X61276Y-71583
X63816Y-71583
X66356Y-71583
X68896Y-71583
X71436Y-71583
T3
X54335Y-33816
X54335Y-38716
X56455Y-29406
X60285Y-26356
X65055Y-25266
X69825Y-26356
X73655Y-29406
X75555Y-55766
X75775Y-33816
X75775Y-38716
T0
M30
