G04 #@! TF.GenerationSoftware,KiCad,Pcbnew,(5.1.4)-1*
G04 #@! TF.CreationDate,2022-04-04T21:48:15-04:00*
G04 #@! TF.ProjectId,CR23 adapter,43523233-2061-4646-9170-7465722e6b69,rev?*
G04 #@! TF.SameCoordinates,Original*
G04 #@! TF.FileFunction,Copper,L2,Bot*
G04 #@! TF.FilePolarity,Positive*
%FSLAX46Y46*%
G04 Gerber Fmt 4.6, Leading zero omitted, Abs format (unit mm)*
G04 Created by KiCad (PCBNEW (5.1.4)-1) date 2022-04-04 21:48:15*
%MOMM*%
%LPD*%
G04 APERTURE LIST*
%ADD10O,1.500000X3.000000*%
%ADD11C,2.600000*%
%ADD12C,0.800000*%
%ADD13C,0.400000*%
%ADD14C,0.250000*%
G04 APERTURE END LIST*
D10*
X70165800Y-75190200D03*
X67625800Y-75190200D03*
X65085800Y-75190200D03*
X62545800Y-75190200D03*
X60005800Y-75190200D03*
D11*
X65054800Y-25265800D03*
X60284800Y-26355800D03*
X56454800Y-29405800D03*
X54334800Y-33815800D03*
X54334800Y-38715800D03*
X69824800Y-26355800D03*
X73654800Y-29405800D03*
X75774800Y-33815800D03*
X75774800Y-38715800D03*
X75554800Y-55765800D03*
D10*
X71435800Y-71583400D03*
X68895800Y-71583400D03*
X66355800Y-71583400D03*
X63815800Y-71583400D03*
X61275800Y-71583400D03*
X58735800Y-71583400D03*
X58723200Y-67049600D03*
D12*
X72400000Y-48200000D03*
X65800000Y-44400000D03*
X63800000Y-45600000D03*
D13*
X71834200Y-55765800D02*
X75554800Y-55765800D01*
X70165800Y-57434200D02*
X71834200Y-55765800D01*
X70165800Y-73440200D02*
X70165800Y-57434200D01*
D14*
X70165800Y-75190200D02*
X70165800Y-73440200D01*
D13*
X75774800Y-47625200D02*
X75774800Y-38715800D01*
X67625800Y-55774200D02*
X75774800Y-47625200D01*
X67625800Y-75190200D02*
X67625800Y-55774200D01*
X65085800Y-75190200D02*
X65085800Y-69189200D01*
X65085800Y-69189200D02*
X66000000Y-68275000D01*
X66000000Y-54600000D02*
X72400000Y-48200000D01*
X66000000Y-68275000D02*
X66000000Y-54600000D01*
X73654800Y-44345200D02*
X73654800Y-29405800D01*
X64400000Y-53600000D02*
X73654800Y-44345200D01*
X62545800Y-75190200D02*
X62545800Y-69329200D01*
X62545800Y-69329200D02*
X64400000Y-67475000D01*
X64400000Y-67475000D02*
X64400000Y-53600000D01*
X60005800Y-75190200D02*
X60005800Y-69669200D01*
X60005800Y-69669200D02*
X63000000Y-66675000D01*
X69824800Y-30824800D02*
X69824800Y-26355800D01*
X70200000Y-31200000D02*
X69824800Y-30824800D01*
X72000000Y-43800000D02*
X71800000Y-44000000D01*
X72000000Y-33000000D02*
X72000000Y-43800000D01*
X63000000Y-52800000D02*
X71800000Y-44000000D01*
X72000000Y-33000000D02*
X70200000Y-31200000D01*
X63000000Y-66675000D02*
X63000000Y-52800000D01*
X65800000Y-44400000D02*
X65400000Y-44000000D01*
X65400000Y-44000000D02*
X59400000Y-44000000D01*
X59400000Y-44000000D02*
X58400000Y-43000000D01*
X58400000Y-43000000D02*
X58400000Y-33000000D01*
X58400000Y-33000000D02*
X62800000Y-28600000D01*
X62800000Y-28600000D02*
X64000000Y-28600000D01*
X65054800Y-27545200D02*
X65054800Y-25265800D01*
X64000000Y-28600000D02*
X65054800Y-27545200D01*
X60284800Y-29115200D02*
X60284800Y-26355800D01*
X57200000Y-32200000D02*
X60284800Y-29115200D01*
X57200000Y-44800000D02*
X57200000Y-32200000D01*
X63800000Y-45600000D02*
X58000000Y-45600000D01*
X58000000Y-45600000D02*
X57200000Y-44800000D01*
M02*
