M48
METRIC,TZ
T1C1.650
T2C2.000
%
G90
G05
T1
X91230Y-122360
X95190Y-122360
X99150Y-122360
X103110Y-122360
X107070Y-122360
X89220Y-113870
X89220Y-118360
X93180Y-118360
X97140Y-118360
X101100Y-118360
X105060Y-118360
X109020Y-118360
T2
X81350Y-69596
X81690Y-61811
X85288Y-54900
X91469Y-50156
X99077Y-48470
X106684Y-50156
X109577Y-91470
X112865Y-54900
X116463Y-61811
X116803Y-69596
T0
M30
