G04 #@! TF.GenerationSoftware,KiCad,Pcbnew,(5.1.4)-1*
G04 #@! TF.CreationDate,2022-10-24T09:46:24-04:00*
G04 #@! TF.ProjectId,CR23 adapter,43523233-2061-4646-9170-7465722e6b69,rev?*
G04 #@! TF.SameCoordinates,Original*
G04 #@! TF.FileFunction,Copper,L2,Bot*
G04 #@! TF.FilePolarity,Positive*
%FSLAX46Y46*%
G04 Gerber Fmt 4.6, Leading zero omitted, Abs format (unit mm)*
G04 Created by KiCad (PCBNEW (5.1.4)-1) date 2022-10-24 09:46:24*
%MOMM*%
%LPD*%
G04 APERTURE LIST*
%ADD10C,3.500000*%
%ADD11R,2.350000X3.000000*%
%ADD12O,2.350000X3.000000*%
%ADD13C,0.750000*%
G04 APERTURE END LIST*
D10*
X81350000Y-69595667D03*
X81689875Y-61811257D03*
X85287740Y-54899823D03*
X91469411Y-50156460D03*
X99076540Y-48470000D03*
X106683669Y-50156460D03*
X112865340Y-54899823D03*
X116463205Y-61811257D03*
X116803080Y-69595667D03*
X109576540Y-91470000D03*
D11*
X89220000Y-113870000D03*
X91230000Y-122360000D03*
D12*
X95190000Y-122360000D03*
X99150000Y-122360000D03*
X103110000Y-122360000D03*
X107070000Y-122360000D03*
D11*
X89220000Y-118360000D03*
D12*
X93180000Y-118360000D03*
X97140000Y-118360000D03*
X101100000Y-118360000D03*
X105060000Y-118360000D03*
X109020000Y-118360000D03*
D13*
X107070000Y-93976540D02*
X109576540Y-91470000D01*
X107070000Y-122360000D02*
X107070000Y-93976540D01*
X103658747Y-82740000D02*
X116803080Y-69595667D01*
X103110000Y-83288747D02*
X103658747Y-82740000D01*
X103110000Y-122360000D02*
X103110000Y-93838747D01*
X103110000Y-93838747D02*
X103110000Y-83288747D01*
X112578743Y-61811257D02*
X116463205Y-61811257D01*
X99150000Y-113520000D02*
X101080000Y-111590000D01*
X99150000Y-122360000D02*
X99150000Y-113520000D01*
X101080000Y-82000000D02*
X110160000Y-72920000D01*
X110160000Y-72920000D02*
X110160000Y-64230000D01*
X110160000Y-64230000D02*
X112578743Y-61811257D01*
X101080000Y-111590000D02*
X101080000Y-100145000D01*
X101080000Y-101040000D02*
X101080000Y-100145000D01*
X101080000Y-100145000D02*
X101080000Y-82000000D01*
X95190000Y-122360000D02*
X95190000Y-115220000D01*
X95190000Y-115220000D02*
X99560000Y-110850000D01*
X99560000Y-100300000D02*
X99560000Y-80610000D01*
X99560000Y-80610000D02*
X108250000Y-71920000D01*
X108250000Y-59515163D02*
X112865340Y-54899823D01*
X108250000Y-71920000D02*
X108250000Y-59515163D01*
X99560000Y-110850000D02*
X99560000Y-100300000D01*
X106683669Y-71216331D02*
X106683669Y-50156460D01*
X97980000Y-79920000D02*
X106683669Y-71216331D01*
X97980000Y-99550000D02*
X97980000Y-79920000D01*
X91230000Y-116850000D02*
X97980000Y-110100000D01*
X91230000Y-122360000D02*
X91230000Y-116850000D01*
X97980000Y-110100000D02*
X97980000Y-99550000D01*
M02*
